HIERARCHY
ROOT Hips
{
  OFFSET 0 0 0
  CHANNELS 6 Xposition Yposition Zposition Zrotation Xrotation Yrotation
  JOINT Spine
  {
    OFFSET 0 10 0
    CHANNELS 6 Xposition Yposition Zposition Zrotation Xrotation Yrotation
    JOINT Neck
    {
      OFFSET 0 30 0
      CHANNELS 6 Xposition Yposition Zposition Zrotation Xrotation Yrotation
      JOINT Head
      {
        OFFSET 0 8 0
        CHANNELS 6 Xposition Yposition Zposition Zrotation Xrotation Yrotation
        End Site
        {
          OFFSET 0 10 0
        }
      }
    }
    JOINT LeftArm
    {
      OFFSET 15 30 0
      CHANNELS 6 Xposition Yposition Zposition Zrotation Xrotation Yrotation
      JOINT LeftForeArm
      {
        OFFSET 25 0 0
        CHANNELS 6 Xposition Yposition Zposition Zrotation Xrotation Yrotation
        JOINT LeftHand
        {
          OFFSET 25 0 0
          CHANNELS 6 Xposition Yposition Zposition Zrotation Xrotation Yrotation
          End Site
          {
            OFFSET 10 0 0
          }
        }
      }
    }
    JOINT RightArm
    {
      OFFSET -15 30 0
      CHANNELS 6 Xposition Yposition Zposition Zrotation Xrotation Yrotation
      JOINT RightForeArm
      {
        OFFSET -25 0 0
        CHANNELS 6 Xposition Yposition Zposition Zrotation Xrotation Yrotation
        JOINT RightHand
        {
          OFFSET -25 0 0
          CHANNELS 6 Xposition Yposition Zposition Zrotation Xrotation Yrotation
          End Site
          {
            OFFSET -10 0 0
          }
        }
      }
    }
  }
  JOINT LeftUpLeg
  {
    OFFSET 10 -10 0
    CHANNELS 6 Xposition Yposition Zposition Zrotation Xrotation Yrotation
    JOINT LeftLeg
    {
      OFFSET 0 -35 0
      CHANNELS 6 Xposition Yposition Zposition Zrotation Xrotation Yrotation
      JOINT LeftFoot
      {
        OFFSET 0 -40 0
        CHANNELS 6 Xposition Yposition Zposition Zrotation Xrotation Yrotation
        End Site
        {
          OFFSET 0 0 15
        }
      }
    }
  }
  JOINT RightUpLeg
  {
    OFFSET -10 -10 0
    CHANNELS 6 Xposition Yposition Zposition Zrotation Xrotation Yrotation
    JOINT RightLeg
    {
      OFFSET 0 -35 0
      CHANNELS 6 Xposition Yposition Zposition Zrotation Xrotation Yrotation
      JOINT RightFoot
      {
        OFFSET 0 -40 0
        CHANNELS 6 Xposition Yposition Zposition Zrotation Xrotation Yrotation
        End Site
        {
          OFFSET 0 0 15
        }
      }
    }
  }
}
MOTION
Frames:	6
Frame Time:	0.0166667
-43.6884 84.4935 -83.3959 -2.4989 -1.34568 93.6691 0 10 0 2.39601 3.06773 -1.60708 0 30 7.10543e-15 -6.04422 -14.7001 -6.29075 -1.42109e-14 8 -7.10543e-15 8.32467 17.0191 -6.84017 15 30 0 -86.348 69.2898 12.2851 25 0 -2.84217e-14 34.1244 -27.1222 -76.3278 25 0 -1.42109e-14 8.68212e-06 -30.9309 1.68911e-05 -15 30 0 93.5053 54.8675 -15.8985 -25 0 0 -33.8875 -26.2955 74.9561 -25 0 0 2.24138e-06 -1.48829 -1.20783e-05 10 -10 7.10543e-15 7.4783 -5.51817 -10.6017 0 -35 -7.10543e-15 0.0735895 22.3163 -0.389893 0 -40 0 2.95716 -21.6613 8.13632 -10 -10 0 -4.98304 1.90414 -4.94315 7.10543e-15 -35 -7.10543e-15 0.00311512 9.72167 -0.0502878 7.10543e-15 -40 -7.10543e-15 -2.46684 -12.1341 -16.0357 
-43.8221 84.5128 -83.3993 -2.79484 -1.36727 93.7001 -1.42109e-14 10 7.10543e-15 2.40464 3.04905 -1.65302 0 30 -7.10543e-15 -6.00164 -14.9045 -6.3787 0 8 3.55271e-15 8.5793 17.2603 -6.99622 15 30 -7.10543e-15 -84.9699 69.0227 10.8732 25 0 -2.84217e-14 34.1818 -27.3353 -76.6809 25 1.42109e-14 7.10543e-15 8.54371e-06 -30.5265 1.68204e-05 -15 30 7.10543e-15 93.2197 54.5376 -15.2891 -25 0 7.10543e-15 -33.9216 -26.41 75.1462 -25 -7.10543e-15 1.42109e-14 2.32392e-06 -1.09682 -1.20764e-05 10 -10 7.10543e-15 7.47177 -5.97745 -10.6205 1.42109e-14 -35 0 0.0737379 22.3275 -0.390267 0 -40 0 2.97406 -21.531 8.22749 -10 -10 7.10543e-15 -4.99166 1.45692 -5.00957 7.10543e-15 -35 0 0.00303585 9.72292 -0.049812 -7.10543e-15 -40 7.10543e-15 -2.44423 -12.0507 -16.0018 
-43.9535 84.5387 -83.3942 -3.03155 -1.25968 93.679 -1.42109e-14 10 0 2.32597 3.12579 -1.47651 1.42109e-14 30 0 -6.33882 -15.0226 -6.5595 -1.42109e-14 8 3.55271e-15 9.20955 17.2398 -7.29256 15 30 0 -83.7171 68.9442 9.5069 25 7.10543e-15 0 34.2552 -27.6151 -77.1447 25 0 0 8.42395e-06 -30.1738 1.67599e-05 -15 30 7.10543e-15 92.8979 54.1619 -14.8064 -25 0 0 -33.9604 -26.5422 75.3656 -25 1.42109e-14 -1.42109e-14 2.37259e-06 -0.86589 -1.20756e-05 10 -10 7.10543e-15 7.3301 -6.27544 -10.6828 0 -35 0 0.0729602 22.2055 -0.390445 0 -40 0 3.01155 -21.4415 8.36015 -10 -10 7.10543e-15 -5.13639 1.10478 -5.01637 1.42109e-14 -35 7.10543e-15 0.0029294 9.70448 -0.0492743 -7.10543e-15 -40 0 -2.43245 -12.0317 -15.9581 
-44.0859 84.5612 -83.3837 -3.19356 -1.15808 93.6043 0 10 -7.10543e-15 2.32483 3.28743 -1.19422 0 30 0 -6.8415 -14.9868 -6.74921 0 8 7.10543e-15 9.873 16.8721 -7.59685 15 30 1.42109e-14 -82.3026 68.9403 7.839 25 7.10543e-15 0 34.3133 -27.8446 -77.5249 25 1.42109e-14 1.42109e-14 8.25648e-06 -29.6764 1.66764e-05 -15 30 7.10543e-15 92.3086 53.8745 -14.1042 -25 0 -7.10543e-15 -34.0128 -26.7234 75.6664 -25 3.55271e-15 0 2.3844e-06 -0.809892 -1.20754e-05 10 -10 -1.42109e-14 7.21752 -6.44742 -10.6381 0 -35 0 0.0718895 22.0368 -0.390663 1.42109e-14 -40 0 3.03784 -21.3173 8.47637 -10 -10 0 -5.27208 0.807796 -4.96102 7.10543e-15 -35 0 0.00286559 9.74394 -0.0486996 0 -40 -7.10543e-15 -2.436 -12.0875 -15.8995 
-44.2103 84.5744 -83.3702 -3.38504 -1.15275 93.474 0 10 0 2.40263 3.36601 -1.04903 -1.42109e-14 30 0 -7.00338 -14.9238 -6.77012 0 8 3.55271e-15 10.0362 16.5281 -7.62154 15 30 -7.10543e-15 -80.8023 68.6958 5.96047 25 -1.42109e-14 0 34.3514 -27.9978 -77.7789 25 0 0 8.05528e-06 -29.0722 1.65777e-05 -15 30 0 91.6081 53.7521 -13.255 -25 0 7.10543e-15 -34.0842 -26.9769 76.0868 -25 -3.55271e-15 0 2.36677e-06 -0.893502 -1.20757e-05 10 -10 0 7.2191 -6.67175 -10.4586 1.42109e-14 -35 7.10543e-15 0.0713401 21.9326 -0.391222 1.42109e-14 -40 -7.10543e-15 3.05084 -21.1662 8.56788 -10 -10 0 -5.29257 0.465316 -4.85564 -7.10543e-15 -35 -7.10543e-15 0.00277967 9.76472 -0.0480903 0 -40 7.10543e-15 -2.40694 -11.9957 -15.8838 
-44.3156 84.5827 -83.3631 -3.66152 -1.19771 93.3924 1.42109e-14 10 0 2.48168 3.2663 -1.20778 -1.42109e-14 30 0 -6.70596 -14.9874 -6.61741 -1.42109e-14 8 -7.10543e-15 9.6071 16.5773 -7.29649 15 30 0 -79.3433 68.1305 4.05113 25 -7.10543e-15 0 34.3829 -28.1279 -77.9944 25 0 0 7.94935e-06 -28.7512 1.65265e-05 -15 30 0 90.6259 53.7719 -11.9023 -25 0 7.10543e-15 -34.1384 -27.1734 76.4126 -25 -7.10543e-15 -1.42109e-14 2.36108e-06 -0.920502 -1.20757e-05 10 -10 7.10543e-15 7.246 -7.03612 -10.3511 0 -35 7.10543e-15 0.071456 21.9125 -0.392167 0 -40 7.10543e-15 3.06956 -21.0479 8.66334 -10 -10 0 -5.26266 0.0656132 -4.80928 -7.10543e-15 -35 0 0.00264008 9.72587 -0.0474544 -7.10543e-15 -40 7.10543e-15 -2.346 -11.7602 -15.9063 
